
<svg width="16px" height="16px" viewBox="0 0 16 16" version="1.1" xmlns="http://www.w3.org/2000/svg" xmlns:xlink="http://www.w3.org/1999/xlink">
    <g id="Page-1" stroke="none" stroke-width="1" fill="none" fill-rule="evenodd">
        <g id="Homepage-2" transform="translate(-1616.000000, -5740.000000)" fill="#FFFFFF" fill-rule="nonzero">
            <g id="Footer" transform="translate(0.000000, 5585.000000)">
                <g id="Footer-Bar" transform="translate(0.000000, 120.000000)">
                    <g id="Social" transform="translate(1616.000000, 35.000000)">
                        <g id="16px-logo-facebook">
                            <path d="M15.3,0 L0.7,0 C0.3,0 0,0.3 0,0.7 L0,15.4 C0,15.7 0.3,16 0.7,16 L8,16 L8,11 L6,11 L6,8 L8,8 L8,6 C8,3.9 9.2,3 11,3 C11.9,3 12.8,3 13,3 L13,6 L12,6 C11.4,6 11,6.4 11,7 L11,8 L13.6,8 L13,11 L11,11 L11,16 L15.3,16 C15.7,16 16,15.7 16,15.3 L16,0.7 C16,0.3 15.7,0 15.3,0 Z" id="Shape"></path>
                        </g>
                    </g>
                </g>
            </g>
        </g>
    </g>
</svg>