
<svg width="16px" height="16px" viewBox="0 0 16 16" version="1.1" xmlns="http://www.w3.org/2000/svg" xmlns:xlink="http://www.w3.org/1999/xlink">
    <g id="Page-1" stroke="none" stroke-width="1" fill="none" fill-rule="evenodd">
        <g id="Homepage-2" transform="translate(-1728.000000, -5740.000000)" fill="#FFFFFF" fill-rule="nonzero">
            <g id="Footer" transform="translate(0.000000, 5585.000000)">
                <g id="Footer-Bar" transform="translate(0.000000, 120.000000)">
                    <g id="Social" transform="translate(1616.000000, 35.000000)">
                        <g id="16px-logo-pinterest" transform="translate(112.000000, 0.000000)">
                            <path d="M8,0 C3.6,0 0,3.6 0,8 C0,11.4 2.1,14.3 5.1,15.4 C5,14.8 5,13.8 5.1,13.1 C5.2,12.5 6,9.1 6,9.1 C6,9.1 5.8,8.7 5.8,8 C5.8,6.9 6.5,6 7.3,6 C8,6 8.3,6.5 8.3,7.1 C8.3,7.8 7.9,8.8 7.6,9.8 C7.4,10.6 8,11.2 8.8,11.2 C10.2,11.2 11.3,9.7 11.3,7.5 C11.3,5.6 9.9,4.2 8,4.2 C5.7,4.2 4.4,5.9 4.4,7.7 C4.4,8.4 4.7,9.1 5,9.5 C5,9.7 5,9.8 5,9.9 C4.9,10.2 4.8,10.7 4.8,10.8 C4.8,10.9 4.7,11 4.5,10.9 C3.5,10.4 2.9,9 2.9,7.8 C2.9,5.3 4.7,3 8.2,3 C11,3 13.1,5 13.1,7.6 C13.1,10.4 11.4,12.6 8.9,12.6 C8.1,12.6 7.3,12.2 7.1,11.7 C7.1,11.7 6.7,13.2 6.6,13.6 C6.4,14.3 5.9,15.2 5.6,15.7 C6.4,15.9 7.2,16 8,16 C12.4,16 16,12.4 16,8 C16,3.6 12.4,0 8,0 Z" id="Shape"></path>
                        </g>
                    </g>
                </g>
            </g>
        </g>
    </g>
</svg>