<svg width="80px" height="103px" viewBox="0 0 80 103" version="1.1" xmlns="http://www.w3.org/2000/svg" xmlns:xlink="http://www.w3.org/1999/xlink">
    <g id="Page-1" stroke="none" stroke-width="1" fill="none" fill-rule="evenodd">
        <g id="Homepage-2" transform="translate(-1213.000000, -1123.000000)" fill="#E8E8E8">
            <g id="2" transform="translate(19.000000, 1040.000000)">
                <path d="M1263.4591,173.983366 L1236.17315,128.405821 C1237.91597,127.96701 1239.45419,127.01412 1240.61972,125.718148 L1267.92028,171.313596 C1268.65468,172.543437 1268.25277,174.142303 1267.02512,174.878161 C1266.61956,175.120037 1266.15919,175.247917 1265.69517,175.247917 C1264.77078,175.247917 1263.93408,174.775126 1263.4591,173.983366 Z M1235.82605,154.74838 L1235.82605,152.47723 C1235.82605,151.468439 1235.00761,150.650372 1233.99919,150.650372 C1232.99076,150.650372 1232.17233,151.468439 1232.17233,152.47723 L1232.17233,154.74838 L1220.31237,154.74838 L1233.99919,131.887081 L1247.68601,154.74838 L1235.82605,154.74838 Z M1204.53928,173.983001 C1204.0643,174.775126 1203.22759,175.247917 1202.3032,175.247917 C1201.83918,175.247917 1201.37881,175.120037 1200.97325,174.878161 C1199.7456,174.142303 1199.3437,172.543437 1200.07809,171.314327 L1227.37866,125.718148 C1228.54419,127.01412 1230.08241,127.96701 1231.82523,128.405821 L1204.53928,173.983001 Z M1233.99919,125.021749 C1231.10179,125.021749 1228.74515,122.665103 1228.74515,119.768437 C1228.74515,116.871771 1231.10179,114.515125 1233.99919,114.515125 C1236.89658,114.515125 1239.25323,116.871771 1239.25323,119.768437 C1239.25323,122.665103 1236.89658,125.021749 1233.99919,125.021749 Z M1217.53555,119.768437 C1217.53555,110.69078 1224.9197,103.305159 1233.99919,103.305159 C1243.07867,103.305159 1250.46283,110.69078 1250.46283,119.768437 C1250.46283,123.369174 1249.27537,126.793436 1247.19641,129.587432 L1242.63292,121.963955 C1242.81195,121.261345 1242.90695,120.525852 1242.90695,119.768437 C1242.90695,114.857112 1238.90978,110.861409 1233.99919,110.861409 C1229.08859,110.861409 1225.09143,114.857112 1225.09143,119.768437 C1225.09143,120.525852 1225.18643,121.26098 1225.36546,121.963589 L1220.80197,129.587432 C1218.723,126.793801 1217.53555,123.369174 1217.53555,119.768437 Z M1231.4014,86.6537157 L1236.59698,86.6537157 L1236.59698,99.8249953 C1235.74566,99.7146531 1234.87973,99.6514438 1233.99919,99.6514438 C1233.11864,99.6514438 1232.25271,99.7146531 1231.4014,99.8249953 L1231.4014,86.6537157 Z M1273.74065,182.538907 L1270.32808,176.839476 C1272.1184,174.85295 1272.49839,171.849962 1271.05517,169.437413 L1249.19865,132.934967 C1252.31892,129.333134 1254.11655,124.681588 1254.11655,119.768437 C1254.11655,110.858121 1248.29252,103.287256 1240.2507,100.6511 L1240.2507,84.8268578 C1240.2507,83.8180669 1239.43226,83 1238.42384,83 L1229.57454,83 C1228.56611,83 1227.74768,83.8180669 1227.74768,84.8268578 L1227.74768,100.6511 C1219.70585,103.286891 1213.88183,110.858121 1213.88183,119.768437 C1213.88183,124.681588 1215.67946,129.333134 1218.79973,132.934967 L1196.9432,169.437413 C1195.49999,171.850327 1195.87997,174.853316 1197.67029,176.839841 L1194.25772,182.538907 C1193.74255,183.404472 1194.02389,184.526528 1194.88616,185.044625 C1195.18211,185.220369 1195.50364,185.304404 1195.82517,185.304404 C1196.4463,185.304404 1197.05282,184.987262 1197.39261,184.415455 L1200.80518,178.714928 C1201.29478,178.836231 1201.79899,178.901633 1202.3032,178.901633 C1204.49178,178.901633 1206.54882,177.736463 1207.67417,175.86028 L1218.12379,158.402096 L1232.17233,158.402096 L1232.17233,160.673245 C1232.17233,161.682402 1232.99076,162.500103 1233.99919,162.500103 C1235.00761,162.500103 1235.82605,161.682402 1235.82605,160.673245 L1235.82605,158.402096 L1249.87458,158.402096 L1260.32421,175.86028 C1261.44955,177.736463 1263.5066,178.901633 1265.69517,178.901633 C1266.19938,178.901633 1266.7036,178.836231 1267.1932,178.714928 L1270.60577,184.415455 C1270.94556,184.987262 1271.55208,185.304404 1272.17321,185.304404 C1272.49474,185.304404 1272.81626,185.220369 1273.11221,185.044625 C1273.97449,184.526528 1274.25948,183.404472 1273.74065,182.538907 L1273.74065,182.538907 Z" id="1"></path>
            </g>
        </g>
    </g>
</svg>