
<svg width="100px" height="96px" viewBox="0 0 100 96" version="1.1" xmlns="http://www.w3.org/2000/svg" xmlns:xlink="http://www.w3.org/1999/xlink">
    <g id="Page-1" stroke="none" stroke-width="1" fill="none" fill-rule="evenodd">
        <g id="Homepage-2" transform="translate(-1693.000000, -1863.000000)" fill="#E8E8E8">
            <g id="2" transform="translate(19.000000, 1040.000000)">
                <g id="3" transform="translate(1674.000000, 823.000000)">
                    <path d="M83.9720755,63.930566 C79.1920755,63.930566 74.9064151,66.0769811 72.02,69.4535849 L72.02,15.9373585 C72.02,9.34716981 77.3815094,3.98528302 83.9720755,3.98528302 C90.5622642,3.98528302 95.9241509,9.34716981 95.9241509,15.9373585 L95.9241509,69.4535849 C93.0373585,66.0769811 88.7520755,63.930566 83.9720755,63.930566 Z M83.9720755,91.6086792 C77.3815094,91.6086792 72.02,86.2467925 72.02,79.6562264 C72.02,73.0656604 77.3815094,67.7041509 83.9720755,67.7041509 C90.5622642,67.7041509 95.9241509,73.0656604 95.9241509,79.6562264 C95.9241509,86.2467925 90.5622642,91.6086792 83.9720755,91.6086792 Z M4.06528302,91.6086792 L4.06528302,18.790566 L68.2464151,18.790566 L68.2464151,79.6562264 C68.2464151,84.4366038 70.3928302,88.7222642 73.769434,91.6086792 L4.06528302,91.6086792 Z M83.9720755,0.211698113 C75.6101887,0.211698113 68.7539623,6.77283019 68.2754717,15.0169811 L2.17849057,15.0169811 C1.13660377,15.0169811 0.291698113,15.8618868 0.291698113,16.9037736 L0.291698113,93.4954717 C0.291698113,94.5377358 1.13660377,95.3822642 2.17849057,95.3822642 L83.9720755,95.3822642 C92.6430189,95.3822642 99.6977358,88.3279245 99.6977358,79.6562264 L99.6977358,15.9373585 C99.6977358,7.26641509 92.6430189,0.211698113 83.9720755,0.211698113 L83.9720755,0.211698113 Z" id="Fill-16"></path>
                    <path d="M83.9720755,83.3064151 C81.9592453,83.3064151 80.3218868,81.6690566 80.3218868,79.6562264 C80.3218868,77.6433962 81.9592453,76.0060377 83.9720755,76.0060377 C85.9845283,76.0060377 87.6222642,77.6433962 87.6222642,79.6562264 C87.6222642,81.6690566 85.9845283,83.3064151 83.9720755,83.3064151 Z M83.9720755,72.2324528 C79.8784906,72.2324528 76.5483019,75.5630189 76.5483019,79.6562264 C76.5483019,83.7498113 79.8784906,87.08 83.9720755,87.08 C88.065283,87.08 91.3958491,83.7498113 91.3958491,79.6562264 C91.3958491,75.5630189 88.065283,72.2324528 83.9720755,72.2324528 L83.9720755,72.2324528 Z" id="Fill-17"></path>
                    <path d="M56.2554717,75.0196226 L48.1418868,75.0196226 L48.1418868,74.0509434 C48.1418868,73.0086792 47.2969811,72.1641509 46.2550943,72.1641509 C45.2132075,72.1641509 44.3683019,73.0086792 44.3683019,74.0509434 L44.3683019,75.0196226 L38.2679245,75.0196226 L38.2679245,74.0509434 C38.2679245,73.0086792 37.4230189,72.1641509 36.3811321,72.1641509 C35.3388679,72.1641509 34.4943396,73.0086792 34.4943396,74.0509434 L34.4943396,75.0196226 L16.5067925,75.0196226 L16.5067925,66.0860377 L30.0290566,66.0860377 C31.0709434,66.0860377 31.9158491,65.2415094 31.9158491,64.1992453 L31.9158491,58.6018868 L46.2554717,58.6018868 C47.2973585,58.6018868 48.1422642,57.7573585 48.1422642,56.7150943 C48.1422642,55.6732075 47.2973585,54.8283019 46.2554717,54.8283019 L31.9158491,54.8283019 L31.9158491,35.3796226 L44.3686792,35.3796226 L44.3686792,46.4637736 C44.3686792,47.5056604 45.2132075,48.350566 46.2554717,48.350566 C47.2973585,48.350566 48.1422642,47.5056604 48.1422642,46.4637736 L48.1422642,35.3796226 L56.2554717,35.3796226 L56.2554717,75.0196226 Z M58.1422642,31.6060377 L14.62,31.6060377 C13.5781132,31.6060377 12.7332075,32.4509434 12.7332075,33.4928302 L12.7332075,41.2769811 C11.8966038,41.4701887 11.2709434,42.2162264 11.2709434,43.1116981 C11.2709434,44.1535849 12.1158491,44.9984906 13.1577358,44.9984906 L16.0822642,44.9984906 C17.1241509,44.9984906 17.9690566,44.1535849 17.9690566,43.1116981 C17.9690566,42.2162264 17.3437736,41.4701887 16.5067925,41.2769811 L16.5067925,35.3796226 L28.1422642,35.3796226 L28.1422642,62.3124528 L16.5067925,62.3124528 L16.5067925,57.030566 C17.3437736,56.8373585 17.9690566,56.0913208 17.9690566,55.1958491 C17.9690566,54.1535849 17.1241509,53.3090566 16.0822642,53.3090566 L13.1577358,53.3090566 C12.1158491,53.3090566 11.2709434,54.1535849 11.2709434,55.1958491 C11.2709434,56.0913208 11.8966038,56.8373585 12.7332075,57.030566 L12.7332075,76.9064151 C12.7332075,77.9486792 13.5781132,78.7932075 14.62,78.7932075 L34.4943396,78.7932075 L34.4943396,79.7626415 C34.4943396,80.8045283 35.3388679,81.649434 36.3811321,81.649434 C37.4230189,81.649434 38.2679245,80.8045283 38.2679245,79.7626415 L38.2679245,78.7932075 L44.3683019,78.7932075 L44.3683019,79.7626415 C44.3683019,80.8045283 45.2132075,81.649434 46.2550943,81.649434 C47.2969811,81.649434 48.1418868,80.8045283 48.1418868,79.7626415 L48.1418868,78.7932075 L58.1422642,78.7932075 C59.1841509,78.7932075 60.0290566,77.9486792 60.0290566,76.9064151 L60.0290566,33.4928302 C60.0290566,32.4509434 59.1841509,31.6060377 58.1422642,31.6060377 L58.1422642,31.6060377 Z" id="Fill-18"></path>
                </g>
            </g>
        </g>
    </g>
</svg>